<?xml version="1.0" standalone="no"?>
<svg xmlns="http://www.w3.org/2000/svg" viewBox="0 0 168.60000000000002 52.68" width="168.60000000000002" height="52.68"><rect fill="none" stroke="#18c9ae" stroke-width="4" width="164.60000000000002" height="48.68" x="2" y="2"></rect><path fill="#23e8c7" fill-rule="nonzero" d="M7.84 28.68L7.84 28.68Q5.68 28.68 3.90 27.58Q2.12 26.48 1.06 24.66Q0 22.84 0 20.64L0 20.64L0 18.80Q0 18.60 0.20 18.60L0.20 18.60L4.68 18.60Q4.84 18.60 4.84 18.80L4.84 18.80L4.84 20.64Q4.84 21.96 5.72 22.90Q6.60 23.84 7.84 23.84L7.84 23.84Q9.08 23.84 9.96 22.88Q10.84 21.92 10.84 20.64L10.84 20.64Q10.84 19.16 8.92 18.08L8.92 18.08Q8.28 17.72 6.92 16.96Q5.56 16.20 4.36 15.52L4.36 15.52Q2.16 14.24 1.10 12.30Q0.04 10.36 0.04 7.92L0.04 7.92Q0.04 5.68 1.12 3.90Q2.20 2.12 3.98 1.08Q5.76 0.04 7.84 0.04L7.84 0.04Q9.96 0.04 11.74 1.10Q13.52 2.16 14.58 3.94Q15.64 5.72 15.64 7.92L15.64 7.92L15.64 11.20Q15.64 11.36 15.48 11.36L15.48 11.36L11 11.36Q10.84 11.36 10.84 11.20L10.84 11.20L10.80 7.92Q10.80 6.52 9.92 5.64Q9.04 4.76 7.84 4.76L7.84 4.76Q6.60 4.76 5.72 5.70Q4.84 6.64 4.84 7.92L4.84 7.92Q4.84 9.24 5.40 10.12Q5.96 11 7.44 11.80L7.44 11.80Q7.64 11.92 8.22 12.22Q8.80 12.52 9.48 12.90Q10.16 13.28 10.70 13.56Q11.24 13.84 11.36 13.92L11.36 13.92Q13.36 15.04 14.52 16.66Q15.68 18.28 15.68 20.64L15.68 20.64Q15.68 22.92 14.62 24.74Q13.56 26.56 11.78 27.62Q10 28.68 7.84 28.68ZM23.16 28.28L18.64 28.28Q18.48 28.28 18.48 28.08L18.48 28.08L18.52 0.60Q18.52 0.44 18.72 0.44L18.72 0.44L23.16 0.44Q23.36 0.44 23.36 0.60L23.36 0.60L23.32 11.48L29.32 11.48L29.32 0.60Q29.32 0.44 29.48 0.44L29.48 0.44L33.92 0.44Q34.12 0.44 34.12 0.60L34.12 0.60L34.20 28.08Q34.20 28.28 34 28.28L34 28.28L29.52 28.28Q29.32 28.28 29.32 28.08L29.32 28.08L29.32 16.32L23.32 16.32L23.32 28.08Q23.32 28.28 23.16 28.28L23.16 28.28ZM44.88 28.68L44.88 28.68Q42.72 28.68 40.94 27.58Q39.16 26.48 38.08 24.66Q37 22.84 37 20.64L37 20.64L37.04 7.96Q37.04 5.76 38.10 3.96Q39.16 2.16 40.96 1.08Q42.76 0 44.88 0L44.88 0Q47.04 0 48.80 1.08Q50.56 2.16 51.62 3.96Q52.68 5.76 52.68 7.96L52.68 7.96L52.72 20.64Q52.72 22.84 51.66 24.66Q50.60 26.48 48.82 27.58Q47.04 28.68 44.88 28.68ZM44.88 23.84L44.88 23.84Q46.08 23.84 46.98 22.86Q47.88 21.88 47.88 20.64L47.88 20.64L47.84 7.96Q47.84 6.64 47 5.72Q46.16 4.80 44.88 4.80L44.88 4.80Q43.64 4.80 42.76 5.70Q41.88 6.60 41.88 7.96L41.88 7.96L41.88 20.64Q41.88 21.96 42.76 22.90Q43.64 23.84 44.88 23.84ZM63.80 28.28L58.96 28.28Q58.80 28.28 58.76 28.08L58.76 28.08L54.04 0.60Q54.00 0.44 54.16 0.44L54.16 0.44L58.64 0.44Q58.80 0.44 58.84 0.60L58.84 0.60L61.40 18.68L64.04 0.60Q64.08 0.44 64.28 0.44L64.28 0.44L67.88 0.44Q68.04 0.44 68.08 0.60L68.08 0.60L70.68 18.68L73.28 0.60Q73.32 0.44 73.48 0.44L73.48 0.44L77.92 0.44Q78.12 0.44 78.08 0.60L78.08 0.60L73.32 28.08Q73.28 28.16 73.20 28.22Q73.12 28.28 73.12 28.28L73.12 28.28L68.28 28.28Q68.16 28.28 68.08 28.08L68.08 28.08L66.04 13.72L64 28.08Q63.96 28.28 63.80 28.28L63.80 28.28ZM87 28.68L87 28.68Q84.80 28.68 83.02 27.58Q81.24 26.48 80.20 24.64Q79.16 22.80 79.16 20.52L79.16 20.52L79.20 8.04Q79.20 5.84 80.22 4.02Q81.24 2.20 83.02 1.10Q84.80 0 87 0L87 0Q89.20 0 90.96 1.08Q92.72 2.16 93.76 3.98Q94.80 5.80 94.80 8.04L94.80 8.04L94.80 9.88Q94.80 10.04 94.64 10.04L94.64 10.04L90.16 10.04Q90 10.04 90 9.88L90 9.88L90 8.04Q90 6.72 89.14 5.76Q88.28 4.80 87 4.80L87 4.80Q85.56 4.80 84.80 5.78Q84.04 6.76 84.04 8.04L84.04 8.04L84.04 20.52Q84.04 22 84.90 22.92Q85.76 23.84 87 23.84L87 23.84Q88.28 23.84 89.14 22.82Q90 21.80 90 20.52L90 20.52L90 18.68Q90 18.52 90.16 18.52L90.16 18.52L94.68 18.52Q94.84 18.52 94.84 18.68L94.84 18.68L94.84 20.52Q94.84 22.80 93.78 24.64Q92.72 26.48 90.96 27.58Q89.20 28.68 87 28.68ZM96.28 28.08L96.28 28.08L101.24 0.60Q101.28 0.44 101.44 0.44L101.44 0.44L107.24 0.44Q107.40 0.44 107.44 0.60L107.44 0.60L112.20 28.08Q112.24 28.28 112.04 28.28L112.04 28.28L107.60 28.28Q107.44 28.28 107.40 28.08L107.40 28.08L106.96 25.16L101.52 25.16L101.08 28.08Q101.04 28.28 100.88 28.28L100.88 28.28L96.44 28.28Q96.28 28.28 96.28 28.08ZM104.12 9.64L102.32 20.88L106.16 20.88L104.52 9.64L104.28 8.16L104.12 9.64ZM120.72 28.68L120.72 28.68Q118.56 28.68 116.78 27.58Q115.00 26.48 113.94 24.66Q112.88 22.84 112.88 20.64L112.88 20.64L112.88 18.80Q112.88 18.60 113.08 18.60L113.08 18.60L117.56 18.60Q117.72 18.60 117.72 18.80L117.72 18.80L117.72 20.64Q117.72 21.96 118.60 22.90Q119.48 23.84 120.72 23.84L120.72 23.84Q121.96 23.84 122.84 22.88Q123.72 21.92 123.72 20.64L123.72 20.64Q123.72 19.16 121.80 18.08L121.80 18.08Q121.16 17.72 119.80 16.96Q118.44 16.20 117.24 15.52L117.24 15.52Q115.04 14.24 113.98 12.30Q112.92 10.36 112.92 7.92L112.92 7.92Q112.92 5.68 114.00 3.90Q115.08 2.12 116.86 1.08Q118.64 0.04 120.72 0.04L120.72 0.04Q122.84 0.04 124.62 1.10Q126.40 2.16 127.46 3.94Q128.52 5.72 128.52 7.92L128.52 7.92L128.52 11.20Q128.52 11.36 128.36 11.36L128.36 11.36L123.88 11.36Q123.72 11.36 123.72 11.20L123.72 11.20L123.68 7.92Q123.68 6.52 122.80 5.64Q121.92 4.76 120.72 4.76L120.72 4.76Q119.48 4.76 118.60 5.70Q117.72 6.64 117.72 7.92L117.72 7.92Q117.72 9.24 118.28 10.12Q118.84 11 120.32 11.80L120.32 11.80Q120.52 11.92 121.10 12.22Q121.68 12.52 122.36 12.90Q123.04 13.28 123.58 13.56Q124.12 13.84 124.24 13.92L124.24 13.92Q126.24 15.04 127.40 16.66Q128.56 18.28 128.56 20.64L128.56 20.64Q128.56 22.92 127.50 24.74Q126.44 26.56 124.66 27.62Q122.88 28.68 120.72 28.68ZM144.44 28.28L131.52 28.28Q131.36 28.28 131.36 28.08L131.36 28.08L131.40 0.60Q131.40 0.44 131.56 0.44L131.56 0.44L144.40 0.44Q144.56 0.44 144.56 0.64L144.56 0.64L144.56 5.12Q144.56 5.28 144.40 5.28L144.40 5.28L136.20 5.28L136.20 11.52L144.40 11.52Q144.56 11.52 144.56 11.68L144.56 11.68L144.60 16.20Q144.60 16.36 144.44 16.36L144.44 16.36L136.20 16.36L136.20 23.36L144.44 23.36Q144.60 23.36 144.60 23.56L144.60 23.56L144.60 28.12Q144.60 28.28 144.44 28.28L144.44 28.28Z" transform="translate(12 12) scale(1)"></path></svg>